<?xml version="1.0" encoding="UTF-8"?>
<!DOCTYPE svg PUBLIC "-//W3C//DTD SVG 1.1//EN" "http://www.w3.org/Graphics/SVG/1.1/DTD/svg11.dtd">
<svg xmlns="http://www.w3.org/2000/svg" version="1.1" width="1200px" height="1200px" style="shape-rendering:geometricPrecision; text-rendering:geometricPrecision; image-rendering:optimizeQuality; fill-rule:evenodd; clip-rule:evenodd" xmlns:xlink="http://www.w3.org/1999/xlink">
<g><path style="opacity:1" fill="#f1042f" d="M -0.5,-0.5 C 399.5,-0.5 799.5,-0.5 1199.5,-0.5C 1199.5,399.5 1199.5,799.5 1199.5,1199.5C 799.5,1199.5 399.5,1199.5 -0.5,1199.5C -0.5,799.5 -0.5,399.5 -0.5,-0.5 Z"/></g>
<g><path style="opacity:1" fill="#010000" d="M 501.5,86.5 C 566.558,86.0106 631.558,86.5106 696.5,88C 702.08,90.9809 705.913,95.4809 708,101.5C 708.5,142.499 708.667,183.499 708.5,224.5C 748.168,224.333 787.835,224.5 827.5,225C 850.402,229.362 864.569,242.862 870,265.5C 870.333,324.167 870.667,382.833 871,441.5C 921.071,461.191 971.238,480.691 1021.5,500C 1026.25,502.667 1029.75,506.501 1032,511.5C 1031.2,633.037 1006.2,749.37 957,860.5C 950.209,874.412 943.709,888.412 937.5,902.5C 969.181,902.383 999.848,907.883 1029.5,919C 1051.69,929.062 1074.69,936.728 1098.5,942C 1117.45,944.497 1136.45,946.164 1155.5,947C 1168.62,954.071 1171.79,964.238 1165,977.5C 1158.01,985.053 1149.34,988.053 1139,986.5C 1097.17,985.389 1057.34,975.889 1019.5,958C 972.224,941.458 923.891,937.792 874.5,947C 853.479,952.007 833.145,959.007 813.5,968C 751.215,989.716 688.215,992.049 624.5,975C 602.041,966.104 579.374,957.771 556.5,950C 516.373,941.195 476.04,940.195 435.5,947C 410.48,953.34 386.147,961.673 362.5,972C 341.076,979.285 319.076,983.618 296.5,985C 260.224,988.12 224.557,985.12 189.5,976C 167.767,968.2 146.101,960.2 124.5,952C 98.705,944.561 72.3717,941.228 45.5,942C 31.1462,935.268 27.3128,924.768 34,910.5C 37.0925,906.072 41.2591,903.239 46.5,902C 82.9028,900.956 118.236,906.623 152.5,919C 182.374,932.968 213.707,941.635 246.5,945C 257.848,945.832 269.181,945.666 280.5,944.5C 218.32,839.795 180.153,726.795 166,605.5C 162.482,574.584 160.815,543.584 161,512.5C 163.899,505.268 169.066,500.435 176.5,498C 227.174,478.888 277.674,459.388 328,439.5C 328.333,380.5 328.667,321.5 329,262.5C 335.119,242.048 348.619,229.548 369.5,225C 408.499,224.5 447.499,224.333 486.5,224.5C 486.333,183.832 486.5,143.165 487,102.5C 489.626,95.0458 494.46,89.7125 501.5,86.5 Z"/></g>
<g><path style="opacity:1" fill="#f0042f" d="M 527.5,126.5 C 574.167,126.5 620.833,126.5 667.5,126.5C 667.5,159.167 667.5,191.833 667.5,224.5C 620.833,224.5 574.167,224.5 527.5,224.5C 527.5,191.833 527.5,159.167 527.5,126.5 Z"/></g>
<g><path style="opacity:1" fill="#f1042f" d="M 829.5,271.5 C 829.832,323.003 829.499,374.336 828.5,425.5C 755.406,397.634 682.406,369.468 609.5,341C 605.291,339.365 600.958,338.198 596.5,337.5C 590.918,338.125 585.585,339.625 580.5,342C 510.593,369.353 440.593,396.187 370.5,422.5C 369.501,372.003 369.168,321.336 369.5,270.5C 370.282,268.549 371.616,267.049 373.5,266C 524.167,265.333 674.833,265.333 825.5,266C 827.464,267.451 828.797,269.284 829.5,271.5 Z"/></g>
<g><path style="opacity:1" fill="#a30220" d="M 829.5,271.5 C 830.831,323.002 830.831,374.668 829.5,426.5C 828.893,426.376 828.56,426.043 828.5,425.5C 829.499,374.336 829.832,323.003 829.5,271.5 Z"/></g>
<g><path style="opacity:1" fill="#c70327" d="M 369.5,270.5 C 369.168,321.336 369.501,372.003 370.5,422.5C 370.44,423.043 370.107,423.376 369.5,423.5C 368.169,372.335 368.169,321.335 369.5,270.5 Z"/></g>
<g><path style="opacity:1" fill="#f1042f" d="M 574.5,388.5 C 575.498,421.662 575.832,454.996 575.5,488.5C 454.226,536.87 333.059,585.537 212,634.5C 206.612,603.74 203.112,572.74 201.5,541.5C 201.547,537.733 202.214,534.233 203.5,531C 327.096,483.192 450.763,435.692 574.5,388.5 Z"/></g>
<g><path style="opacity:1" fill="#ce0328" d="M 574.5,388.5 C 574.56,387.957 574.893,387.624 575.5,387.5C 576.83,421.331 576.83,454.998 575.5,488.5C 575.832,454.996 575.498,421.662 574.5,388.5 Z"/></g>
<g><path style="opacity:1" fill="#790218" d="M 618.5,388.5 C 617.502,421.329 617.168,454.329 617.5,487.5C 616.17,454.331 616.17,420.998 617.5,387.5C 618.107,387.624 618.44,387.957 618.5,388.5 Z"/></g>
<g><path style="opacity:1" fill="#f1042f" d="M 618.5,388.5 C 742.923,436.209 867.257,484.209 991.5,532.5C 991.329,564.72 988.329,596.72 982.5,628.5C 860.395,582.468 738.728,535.468 617.5,487.5C 617.168,454.329 617.502,421.329 618.5,388.5 Z"/></g>
<g><path style="opacity:1" fill="#f1042f" d="M 575.5,532.5 C 575.5,659.167 575.5,785.833 575.5,912.5C 574.5,912.5 573.5,912.5 572.5,912.5C 518.92,898.483 465.253,897.983 411.5,911C 385.012,920.914 358.346,930.247 331.5,939C 329.5,939.667 327.5,939.667 325.5,939C 273.245,857.758 237.911,769.591 219.5,674.5C 338.167,627.167 456.833,579.833 575.5,532.5 Z"/></g>
<g><path style="opacity:1" fill="#cf0328" d="M 572.5,912.5 C 573.5,912.5 574.5,912.5 575.5,912.5C 575.5,785.833 575.5,659.167 575.5,532.5C 576.5,658.763 576.833,785.763 576.5,913.5C 574.901,913.768 573.568,913.434 572.5,912.5 Z"/></g>
<g><path style="opacity:1" fill="#f1042f" d="M 616.5,531.5 C 736.179,577.503 855.845,623.503 975.5,669.5C 959.331,751.992 930.664,829.826 889.5,903C 874.061,905.692 858.727,909.025 843.5,913C 821.642,921.397 799.642,929.397 777.5,937C 743.289,945.557 708.622,947.89 673.5,944C 653.955,941.197 634.955,936.364 616.5,929.5C 616.5,796.833 616.5,664.167 616.5,531.5 Z"/></g>
<g><path style="opacity:1" fill="#010000" d="M 45.5,1028.5 C 75.1333,1027 104.133,1030.5 132.5,1039C 150.277,1045.39 167.943,1052.06 185.5,1059C 243.711,1077.45 301.711,1076.79 359.5,1057C 383.989,1046.06 409.322,1037.73 435.5,1032C 472.555,1027.14 509.555,1027.47 546.5,1033C 572.362,1038.77 597.362,1047.1 621.5,1058C 680.604,1077.54 739.604,1077.21 798.5,1057C 814.056,1050.72 829.723,1044.72 845.5,1039C 871.421,1031.2 897.921,1027.7 925,1028.5C 954.103,1027.19 982.603,1030.69 1010.5,1039C 1027.39,1044.78 1044.05,1051.11 1060.5,1058C 1090.63,1068.21 1121.63,1073.21 1153.5,1073C 1167.46,1079.12 1171.3,1089.29 1165,1103.5C 1157.73,1111.79 1148.56,1114.79 1137.5,1112.5C 1112.99,1112.4 1088.99,1108.9 1065.5,1102C 1048.76,1095.86 1032.09,1089.53 1015.5,1083C 963.008,1065.6 910.008,1063.93 856.5,1078C 839.202,1083.54 822.202,1089.88 805.5,1097C 765.893,1110.16 725.226,1115.16 683.5,1112C 659.821,1110.66 636.821,1106 614.5,1098C 592.132,1088.21 569.132,1080.21 545.5,1074C 498.898,1064.78 452.898,1067.11 407.5,1081C 381.36,1092.57 354.36,1101.57 326.5,1108C 284.695,1114.54 243.028,1113.87 201.5,1106C 179.756,1099.46 158.422,1091.79 137.5,1083C 106.634,1073.02 74.9669,1067.68 42.5,1067C 31.1495,1059.62 28.3162,1049.78 34,1037.5C 37.1584,1033.49 40.9918,1030.49 45.5,1028.5 Z"/></g>
</svg>
